<?xml version="1.0" encoding="UTF-8" standalone="no"?>
<!-- Created with Inkscape (http://www.inkscape.org/) -->

<svg
   width="100.0001mm"
   height="100.00017mm"
   viewBox="0 0 100.0001 100.00017"
   version="1.1"
   id="svg1"
   xml:space="preserve"
   xmlns="http://www.w3.org/2000/svg"
   xmlns:svg="http://www.w3.org/2000/svg"><defs
     id="defs1" /><g
     id="g51"
     transform="translate(212.24389,-200.45181)"><path
       d="m -130.01687,251.23996 a 2.0002,2.0002 0 0 1 0.18965,0.64699 l 3.31866,28.62668 4.09433,-14.23273 -2.00867,-17.32194 z"
       style="fill:#ed6e6e;stroke-width:4;stroke-linecap:round;stroke-linejoin:round;paint-order:stroke fill markers"
       id="path51" /><path
       d="m -137.74715,226.6766 -51.36947,44.45414 a 2.0002,2.0002 0 0 0 2.06292,3.36517 l 57.03683,-23.25595 a 2.0002,2.0002 0 0 0 -2.5523,-0.9741 l -53.8148,21.93923 48.89675,-42.31421 a 2.0002,2.0002 0 0 0 -0.25993,-3.21428 z"
       style="stroke-width:2;stroke-linecap:round;stroke-linejoin:round;paint-order:stroke fill markers"
       id="path50" /><path
       d="m -183.57794,221.99317 -6.7784,2.10271 51.64853,2.28513 a 2.0002,2.0002 0 0 1 0.96066,0.29559 l 2.91972,-2.52646 z"
       style="fill:#ed6e6e;stroke-width:4;stroke-linecap:round;stroke-linejoin:round;paint-order:stroke fill markers"
       id="path49" /><path
       d="m -194.15146,221.08573 -8.35142,2.59002 a 2.0002,2.0002 0 0 0 0.50384,3.90829 l 58.09568,2.57039 -54.28919,46.98059 a 2.0002,2.0002 0 0 0 2.06292,3.36517 l 62.6308,-25.53694 4.16564,35.92339 a 2.0002,2.0002 0 0 0 3.90829,0.32246 l 4.20594,-14.61926 -1.19527,-10.30894 -4.09433,14.23273 -3.31866,-28.62668 a 2.0002,2.0002 0 0 0 -0.18965,-0.64699 l -57.03683,23.25595 a 2.0002,2.0002 0 0 1 -2.06292,-3.36517 l 51.36947,-44.45414 a 2.0002,2.0002 0 0 0 -0.96066,-0.29559 l -51.64853,-2.28513 6.7784,-2.10271 -9.34517,-0.41341 a 2.0002,2.0002 0 0 1 -1.22835,-0.49403 z"
       style="stroke-width:2;stroke-linecap:round;stroke-linejoin:round;paint-order:stroke fill markers"
       id="path48" /><path
       d="m -158.13453,206.72485 -35.29242,10.94662 a 2.0002,2.0002 0 0 0 -0.72451,3.41426 l 43.24646,-13.41365 z"
       style="fill:#ed6e6e;stroke-width:4;stroke-linecap:round;stroke-linejoin:round;paint-order:stroke fill markers"
       id="path47" /><path
       d="m -175.22445,200.45185 26.23354,3.437 7.16184,-2.22106 -9.28212,-1.21594 z"
       style="fill:#ed6e6e;stroke-width:4;stroke-linecap:round;stroke-linejoin:round;paint-order:stroke fill markers"
       id="path46" /><path
       d="m -205.96779,200.45185 a 2,2 0 0 0 0.16588,0.0289 l 47.66738,6.24406 9.14362,-2.836 -26.23354,-3.437 z"
       style="stroke-width:2;stroke-linecap:round;stroke-linejoin:round;paint-order:stroke fill markers"
       id="path45" /><path
       d="m -112.24379,270.93592 -4.10518,14.26889 a 2.0002,2.0002 0 0 1 -3.90829,-0.32246 l -0.9617,-8.29251 -4.20594,14.61926 a 2.0002,2.0002 0 0 1 -3.90829,-0.32246 l -4.16564,-35.92339 -62.6308,25.53694 a 2.0002,2.0002 0 0 1 -2.06292,-3.36517 l 54.28919,-46.98059 -58.09568,-2.57039 a 2.0002,2.0002 0 0 1 -0.50384,-3.90829 l 8.35142,-2.59002 a 2.0002,2.0002 0 0 1 0.72451,-3.41426 l 35.29242,-10.94662 -47.66738,-6.24406 a 2,2 0 0 1 -0.16588,-0.0289 h -6.2761 v 100.00009 h 100.0001 z"
       style="fill:#ed6e6e;stroke-width:4;stroke-linecap:round;stroke-linejoin:round;paint-order:stroke fill markers"
       id="path44" /><path
       d="m -113.9548,262.41912 1.71101,5.72162 v -11.66906 z"
       style="stroke-width:2;stroke-linecap:round;stroke-linejoin:round;paint-order:stroke fill markers"
       id="path42" /><path
       d="m -118.34833,266.61163 -2.87063,9.97821 0.9617,8.29251 a 2.0002,2.0002 0 0 0 3.90829,0.32246 l 4.10518,-14.26889 v -2.79518 l -1.71101,-5.72162 -3.47783,12.09022 z"
       style="fill:#ed6e6e;stroke-width:4;stroke-linecap:round;stroke-linejoin:round;paint-order:stroke fill markers"
       id="path41" /><path
       d="m -118.34833,266.61163 0.9157,7.89771 3.47783,-12.09022 -1.62419,-5.43274 z"
       style="fill:#ed6e6e;stroke-width:4;stroke-linecap:round;stroke-linejoin:round;paint-order:stroke fill markers"
       id="path40" /><path
       d="m -119.54361,256.30115 -2.87062,9.97975 1.19527,10.30894 2.87063,-9.97821 z"
       style="stroke-width:2;stroke-linecap:round;stroke-linejoin:round;paint-order:stroke fill markers"
       id="path39" /><path
       d="m -119.54361,256.30115 1.19528,10.31048 2.76934,-9.62525 1.62419,5.43274 1.71101,-5.94744 v -2.29081 l -1.45625,-4.86999 a 2.0002,2.0002 0 0 0 -3.83801,0.0191 z"
       style="stroke-width:2;stroke-linecap:round;stroke-linejoin:round;paint-order:stroke fill markers"
       id="path38" /><path
       d="m -172.28302,218.48951 -11.29492,3.50366 48.75051,2.15697 -2.91972,2.52646 a 2.0002,2.0002 0 0 1 0.25993,3.21428 l -48.89675,42.31421 53.8148,-21.93923 a 2.0002,2.0002 0 0 1 2.5523,0.9741 l 5.59397,-2.281 2.00867,17.32194 2.87062,-9.97975 -1.20768,-10.41848 a 2.0002,2.0002 0 0 0 -2.74195,-1.62109 l -53.8148,21.93923 48.89676,-42.31422 a 2.0002,2.0002 0 0 0 -1.2206,-3.50986 z"
       style="fill:#ed6e6e;stroke-width:4;stroke-linecap:round;stroke-linejoin:round;paint-order:stroke fill markers"
       id="path37" /><path
       d="m -140.27413,205.37196 a 2.0002,2.0002 0 0 0 -1.05471,-0.47904 l -7.66207,-1.00407 -9.14362,2.836 7.22953,0.94723 -43.24646,13.41365 a 2.0002,2.0002 0 0 0 1.22835,0.49403 l 9.34517,0.41341 11.29492,-3.50366 -8.99739,-0.39791 z"
       style="stroke-width:2;stroke-linecap:round;stroke-linejoin:round;paint-order:stroke fill markers"
       id="path36" /><path
       d="m -140.27413,205.37196 -41.00628,12.71964 8.99739,0.39791 31.28594,-9.70432 a 2.0002,2.0002 0 0 0 0.72295,-3.41323 z"
       style="stroke-width:2;stroke-linecap:round;stroke-linejoin:round;paint-order:stroke fill markers"
       id="path35" /><path
       d="m -130.56051,200.45185 h -20.55068 l 9.28212,1.21594 -7.16184,2.22106 7.66207,1.00407 a 2.0002,2.0002 0 0 1 1.05471,0.47904 l 8.35298,-2.59106 a 2.0002,2.0002 0 0 0 1.36064,-2.32905 z"
       style="fill:#ed6e6e;stroke-width:4;stroke-linecap:round;stroke-linejoin:round;paint-order:stroke fill markers"
       id="path34" /><path
       d="m -130.56051,200.45185 a 2.0002,2.0002 0 0 1 -1.36064,2.32905 l -8.35298,2.59106 a 2.0002,2.0002 0 0 1 -0.72295,3.41323 l -31.28594,9.70432 42.65114,1.88722 a 2.0002,2.0002 0 0 1 1.2206,3.50986 l -48.89676,42.31422 53.8148,-21.93923 a 2.0002,2.0002 0 0 1 2.74195,1.62109 l 1.20768,10.41848 2.00556,-6.97115 a 2.0002,2.0002 0 0 1 3.83801,-0.0191 l 1.45625,4.86999 v -53.72902 z"
       style="fill:#ed6e6e;stroke-width:4;stroke-linecap:round;stroke-linejoin:round;paint-order:stroke fill markers"
       id="path33" /></g></svg>
